%TF.GenerationSoftware,KiCad,Pcbnew,10.0.6*%
%TF.CreationDate,2026-09-01T21:38:50+02:00*%
%TF.ProjectId,Amazing Gogo-Kieran (4),416d617a-696e-4672-9047-6f676f2d4b69,rev?*%
%TF.SameCoordinates,Original*%
%TF.FileFunction,Legend,Top*%
%TF.FilePolarity,Positive*%
%FSLAX46Y46*%
G04 Gerber Fmt 4.6, Leading zero omitted, Abs format (unit mm)*
G04 Created by KiCad (PCBNEW 10.0.6) date 2026-09-01 21:38:50*
%MOMM*%
%LPD*%
G01*
G04 APERTURE LIST*
%ADD10C,0.152400*%
%ADD11C,0.254000*%
%ADD12C,0.203200*%
%ADD13C,0.120000*%
%ADD14C,0.127000*%
G04 APERTURE END LIST*
%TO.C,BAT2*%
D10*
X70997100Y-65798300D02*
X70997100Y-74434300D01*
X70997100Y-74434300D02*
X71759100Y-75196300D01*
X71759100Y-65036300D02*
X70997100Y-65798300D01*
X71759100Y-75196300D02*
X75315100Y-75196300D01*
X75315100Y-65036300D02*
X71759100Y-65036300D01*
X75315100Y-75196300D02*
X76077100Y-74434300D01*
D11*
X75442100Y-72656300D02*
X76712100Y-72656300D01*
D10*
X76077100Y-65798300D02*
X75315100Y-65036300D01*
D11*
X76077100Y-67068300D02*
X76077100Y-68211300D01*
X76077100Y-72021300D02*
X76077100Y-73291300D01*
%TO.C,S1*%
D12*
X147133400Y-81684214D02*
X147133400Y-76604214D01*
X147920800Y-75893014D02*
X152442000Y-75893014D01*
X152442000Y-82395414D02*
X147920800Y-82395414D01*
X153229400Y-76604214D02*
X153229400Y-81684214D01*
X147133400Y-76604214D02*
G75*
G02*
X147920800Y-75893014I749300J-38100D01*
G01*
X147920800Y-82395414D02*
G75*
G02*
X147133400Y-81684214I-38100J749300D01*
G01*
X152442000Y-75893014D02*
G75*
G02*
X153229400Y-76604214I38100J-749300D01*
G01*
X153229400Y-81684214D02*
G75*
G02*
X152442000Y-82395414I-749300J38100D01*
G01*
X151959400Y-79144214D02*
G75*
G02*
X148403400Y-79144214I-1778000J0D01*
G01*
X148403400Y-79144214D02*
G75*
G02*
X151959400Y-79144214I1778000J0D01*
G01*
%TO.C,R1*%
D13*
X142796400Y-64853400D02*
X145296400Y-64853400D01*
X142796400Y-73353400D02*
X142796400Y-64853400D01*
X144046400Y-64853400D02*
X144046400Y-64992400D01*
X144046400Y-73353400D02*
X144046400Y-73214400D01*
X145296400Y-64853400D02*
X145296400Y-73353400D01*
X145296400Y-73353400D02*
X142796400Y-73353400D01*
%TO.C,D1*%
X140239647Y-61124414D02*
X140239647Y-58661614D01*
X145001747Y-62862614D02*
X145001747Y-62112614D01*
X145376747Y-62487614D02*
X144626747Y-62487614D01*
X140239647Y-58661614D02*
G75*
G02*
X145607147Y-59893015I2542499J-1231394D01*
G01*
X145607147Y-59893013D02*
G75*
G02*
X140239647Y-61124414I-2825001J-7D01*
G01*
%TO.C,R2*%
X146391400Y-86240700D02*
X148891400Y-86240700D01*
X146391400Y-94740700D02*
X146391400Y-86240700D01*
X147641400Y-86240700D02*
X147641400Y-86379700D01*
X147641400Y-94740700D02*
X147641400Y-94601700D01*
X148891400Y-86240700D02*
X148891400Y-94740700D01*
X148891400Y-94740700D02*
X146391400Y-94740700D01*
%TO.C,U4*%
D14*
X150223100Y-98353000D02*
X230233100Y-98353000D01*
X150223100Y-134344800D02*
X150223100Y-98353000D01*
X154718900Y-104372800D02*
X225737300Y-104372800D01*
X154718900Y-128325000D02*
X154718900Y-104372800D01*
D10*
X157462100Y-100258000D02*
X157462100Y-101528000D01*
X157462100Y-101528000D02*
X158097100Y-102163000D01*
D14*
X157462100Y-105338000D02*
X158097100Y-104703000D01*
X157462100Y-106608000D02*
X157462100Y-105338000D01*
X157462100Y-107878000D02*
X158097100Y-107243000D01*
X157462100Y-109148000D02*
X157462100Y-107878000D01*
X157462100Y-110418000D02*
X158097100Y-109783000D01*
X157462100Y-111688000D02*
X157462100Y-110418000D01*
X157462100Y-112958000D02*
X158097100Y-112323000D01*
X157462100Y-114228000D02*
X157462100Y-112958000D01*
D10*
X158097100Y-99623000D02*
X157462100Y-100258000D01*
X158097100Y-99623000D02*
X159367100Y-99623000D01*
D14*
X158097100Y-104703000D02*
X159367100Y-104703000D01*
X158097100Y-107243000D02*
X157462100Y-106608000D01*
X158097100Y-109783000D02*
X157462100Y-109148000D01*
X158097100Y-112323000D02*
X157462100Y-111688000D01*
X158097100Y-114863000D02*
X157462100Y-114228000D01*
D10*
X159367100Y-99623000D02*
X160002100Y-100258000D01*
X159367100Y-102163000D02*
X158097100Y-102163000D01*
D14*
X159367100Y-104703000D02*
X160002100Y-105338000D01*
X159367100Y-107243000D02*
X158097100Y-107243000D01*
X159367100Y-107243000D02*
X160002100Y-107878000D01*
X159367100Y-109783000D02*
X158097100Y-109783000D01*
X159367100Y-109783000D02*
X160002100Y-110418000D01*
X159367100Y-112323000D02*
X158097100Y-112323000D01*
X159367100Y-112323000D02*
X160002100Y-112958000D01*
X159367100Y-114863000D02*
X158097100Y-114863000D01*
D10*
X160002100Y-100258000D02*
X160002100Y-101528000D01*
X160002100Y-100258000D02*
X160637100Y-99623000D01*
X160002100Y-101528000D02*
X159367100Y-102163000D01*
D14*
X160002100Y-105338000D02*
X160002100Y-106608000D01*
X160002100Y-106608000D02*
X159367100Y-107243000D01*
X160002100Y-107878000D02*
X160002100Y-109148000D01*
X160002100Y-109148000D02*
X159367100Y-109783000D01*
X160002100Y-110418000D02*
X160002100Y-111688000D01*
X160002100Y-111688000D02*
X159367100Y-112323000D01*
X160002100Y-112958000D02*
X160002100Y-114228000D01*
X160002100Y-114228000D02*
X159367100Y-114863000D01*
D10*
X160637100Y-99623000D02*
X161907100Y-99623000D01*
X160637100Y-102163000D02*
X160002100Y-101528000D01*
X161907100Y-99623000D02*
X162542100Y-100258000D01*
X161907100Y-102163000D02*
X160637100Y-102163000D01*
X162542100Y-100258000D02*
X162542100Y-101528000D01*
X162542100Y-100258000D02*
X163177100Y-99623000D01*
X162542100Y-101528000D02*
X161907100Y-102163000D01*
X163177100Y-99623000D02*
X164447100Y-99623000D01*
X163177100Y-102163000D02*
X162542100Y-101528000D01*
X164447100Y-99623000D02*
X165082100Y-100258000D01*
X164447100Y-102163000D02*
X163177100Y-102163000D01*
X165082100Y-100258000D02*
X165082100Y-101528000D01*
X165082100Y-101528000D02*
X164447100Y-102163000D01*
X165082100Y-101528000D02*
X165717100Y-102163000D01*
X165717100Y-99623000D02*
X165082100Y-100258000D01*
X165717100Y-99623000D02*
X166987100Y-99623000D01*
X166987100Y-99623000D02*
X167622100Y-100258000D01*
X166987100Y-102163000D02*
X165717100Y-102163000D01*
X167622100Y-100258000D02*
X167622100Y-101528000D01*
X167622100Y-100258000D02*
X168257100Y-99623000D01*
X167622100Y-101528000D02*
X166987100Y-102163000D01*
X168257100Y-99623000D02*
X169527100Y-99623000D01*
X168257100Y-102163000D02*
X167622100Y-101528000D01*
X169527100Y-99623000D02*
X170162100Y-100258000D01*
X169527100Y-102163000D02*
X168257100Y-102163000D01*
X170162100Y-100258000D02*
X170162100Y-101528000D01*
X170162100Y-100258000D02*
X170797100Y-99623000D01*
X170162100Y-101528000D02*
X169527100Y-102163000D01*
X170797100Y-99623000D02*
X172067100Y-99623000D01*
X170797100Y-102163000D02*
X170162100Y-101528000D01*
X172067100Y-99623000D02*
X172702100Y-100258000D01*
X172067100Y-102163000D02*
X170797100Y-102163000D01*
X172702100Y-100258000D02*
X172702100Y-101528000D01*
X172702100Y-101528000D02*
X172067100Y-102163000D01*
X172702100Y-101528000D02*
X173337100Y-102163000D01*
X173337100Y-99623000D02*
X172702100Y-100258000D01*
X173337100Y-99623000D02*
X174607100Y-99623000D01*
X174607100Y-99623000D02*
X175242100Y-100258000D01*
X174607100Y-102163000D02*
X173337100Y-102163000D01*
X175242100Y-100258000D02*
X175242100Y-101528000D01*
X175242100Y-100258000D02*
X175877100Y-99623000D01*
X175242100Y-101528000D02*
X174607100Y-102163000D01*
X175877100Y-99623000D02*
X177147100Y-99623000D01*
X175877100Y-102163000D02*
X175242100Y-101528000D01*
X177147100Y-99623000D02*
X177782100Y-100258000D01*
X177147100Y-102163000D02*
X175877100Y-102163000D01*
X177782100Y-100258000D02*
X177782100Y-101528000D01*
X177782100Y-100258000D02*
X178417100Y-99623000D01*
X177782100Y-101528000D02*
X177147100Y-102163000D01*
X178417100Y-99623000D02*
X179687100Y-99623000D01*
X178417100Y-102163000D02*
X177782100Y-101528000D01*
X179687100Y-99623000D02*
X180322100Y-100258000D01*
X179687100Y-102163000D02*
X178417100Y-102163000D01*
X180322100Y-100258000D02*
X180322100Y-101528000D01*
X180322100Y-101528000D02*
X179687100Y-102163000D01*
X180322100Y-101528000D02*
X180957100Y-102163000D01*
X180957100Y-99623000D02*
X180322100Y-100258000D01*
X180957100Y-99623000D02*
X182227100Y-99623000D01*
X182227100Y-99623000D02*
X182862100Y-100258000D01*
X182227100Y-102163000D02*
X180957100Y-102163000D01*
X182862100Y-100258000D02*
X182862100Y-101528000D01*
X182862100Y-100258000D02*
X183497100Y-99623000D01*
X182862100Y-101528000D02*
X182227100Y-102163000D01*
X183497100Y-99623000D02*
X184767100Y-99623000D01*
X183497100Y-102163000D02*
X182862100Y-101528000D01*
X184767100Y-99623000D02*
X185402100Y-100258000D01*
X184767100Y-102163000D02*
X183497100Y-102163000D01*
X185402100Y-100258000D02*
X185402100Y-101528000D01*
X185402100Y-100258000D02*
X186037100Y-99623000D01*
X185402100Y-101528000D02*
X184767100Y-102163000D01*
X186037100Y-99623000D02*
X187307100Y-99623000D01*
X186037100Y-102163000D02*
X185402100Y-101528000D01*
X187307100Y-99623000D02*
X187942100Y-100258000D01*
X187307100Y-102163000D02*
X186037100Y-102163000D01*
X187942100Y-100258000D02*
X187942100Y-101528000D01*
X187942100Y-101528000D02*
X187307100Y-102163000D01*
X187942100Y-101528000D02*
X188577100Y-102163000D01*
X188577100Y-99623000D02*
X187942100Y-100258000D01*
X188577100Y-99623000D02*
X189847100Y-99623000D01*
X189847100Y-99623000D02*
X190482100Y-100258000D01*
X189847100Y-102163000D02*
X188577100Y-102163000D01*
X190482100Y-100258000D02*
X190482100Y-101528000D01*
X190482100Y-100258000D02*
X191117100Y-99623000D01*
X190482100Y-101528000D02*
X189847100Y-102163000D01*
X191117100Y-99623000D02*
X192387100Y-99623000D01*
X191117100Y-102163000D02*
X190482100Y-101528000D01*
X192387100Y-99623000D02*
X193022100Y-100258000D01*
X192387100Y-102163000D02*
X191117100Y-102163000D01*
X193022100Y-100258000D02*
X193022100Y-101528000D01*
X193022100Y-100258000D02*
X193657100Y-99623000D01*
X193022100Y-101528000D02*
X192387100Y-102163000D01*
X193657100Y-99623000D02*
X194927100Y-99623000D01*
X193657100Y-102163000D02*
X193022100Y-101528000D01*
X194927100Y-99623000D02*
X195562100Y-100258000D01*
X194927100Y-102163000D02*
X193657100Y-102163000D01*
X195562100Y-100258000D02*
X195562100Y-101528000D01*
X195562100Y-100258000D02*
X196197100Y-99623000D01*
X195562100Y-101528000D02*
X194927100Y-102163000D01*
X196197100Y-99623000D02*
X197467100Y-99623000D01*
X196197100Y-102163000D02*
X195562100Y-101528000D01*
X197467100Y-99623000D02*
X198102100Y-100258000D01*
X197467100Y-102163000D02*
X196197100Y-102163000D01*
X198102100Y-100258000D02*
X198102100Y-101528000D01*
X198102100Y-101528000D02*
X197467100Y-102163000D01*
D14*
X225737300Y-104372800D02*
X225737300Y-128325000D01*
X225737300Y-128325000D02*
X154718900Y-128325000D01*
X230233100Y-98353000D02*
X230233100Y-134344800D01*
X230233100Y-134344800D02*
X150223100Y-134344800D01*
X153753700Y-100613600D02*
G75*
G02*
X151213700Y-100613600I-1270000J0D01*
G01*
X151213700Y-100613600D02*
G75*
G02*
X153753700Y-100613600I1270000J0D01*
G01*
X153753700Y-132084200D02*
G75*
G02*
X151213700Y-132084200I-1270000J0D01*
G01*
X151213700Y-132084200D02*
G75*
G02*
X153753700Y-132084200I1270000J0D01*
G01*
X229242500Y-100613600D02*
G75*
G02*
X226702500Y-100613600I-1270000J0D01*
G01*
X226702500Y-100613600D02*
G75*
G02*
X229242500Y-100613600I1270000J0D01*
G01*
X229242500Y-132084200D02*
G75*
G02*
X226702500Y-132084200I-1270000J0D01*
G01*
X226702500Y-132084200D02*
G75*
G02*
X229242500Y-132084200I1270000J0D01*
G01*
%TD*%
M02*
