%TF.GenerationSoftware,KiCad,Pcbnew,10.0.6*%
%TF.CreationDate,2026-09-01T21:38:50+02:00*%
%TF.ProjectId,Amazing Gogo-Kieran (4),416d617a-696e-4672-9047-6f676f2d4b69,rev?*%
%TF.SameCoordinates,Original*%
%TF.FileFunction,Copper,L1,Top*%
%TF.FilePolarity,Positive*%
%FSLAX46Y46*%
G04 Gerber Fmt 4.6, Leading zero omitted, Abs format (unit mm)*
G04 Created by KiCad (PCBNEW 10.0.6) date 2026-09-01 21:38:50*
%MOMM*%
%LPD*%
G01*
G04 APERTURE LIST*
G04 Aperture macros list*
%AMOutline5P*
0 Free polygon, 5 corners , with rotation*
0 The origin of the aperture is its center*
0 number of corners: always 5*
0 $1 to $10 corner X, Y*
0 $11 Rotation angle, in degrees counterclockwise*
0 create outline with 5 corners*
4,1,5,$1,$2,$3,$4,$5,$6,$7,$8,$9,$10,$1,$2,$11*%
%AMOutline6P*
0 Free polygon, 6 corners , with rotation*
0 The origin of the aperture is its center*
0 number of corners: always 6*
0 $1 to $12 corner X, Y*
0 $13 Rotation angle, in degrees counterclockwise*
0 create outline with 6 corners*
4,1,6,$1,$2,$3,$4,$5,$6,$7,$8,$9,$10,$11,$12,$1,$2,$13*%
%AMOutline7P*
0 Free polygon, 7 corners , with rotation*
0 The origin of the aperture is its center*
0 number of corners: always 7*
0 $1 to $14 corner X, Y*
0 $15 Rotation angle, in degrees counterclockwise*
0 create outline with 7 corners*
4,1,7,$1,$2,$3,$4,$5,$6,$7,$8,$9,$10,$11,$12,$13,$14,$1,$2,$15*%
%AMOutline8P*
0 Free polygon, 8 corners , with rotation*
0 The origin of the aperture is its center*
0 number of corners: always 8*
0 $1 to $16 corner X, Y*
0 $17 Rotation angle, in degrees counterclockwise*
0 create outline with 8 corners*
4,1,8,$1,$2,$3,$4,$5,$6,$7,$8,$9,$10,$11,$12,$13,$14,$15,$16,$1,$2,$17*%
G04 Aperture macros list end*
%ADD10C,0.300000*%
%TA.AperFunction,NonConductor*%
%ADD11C,0.300000*%
%TD*%
%ADD12C,0.250000*%
%TA.AperFunction,ComponentPad*%
%ADD13Outline8P,-1.574800X0.652304X-0.652304X1.574800X0.652304X1.574800X1.574800X0.652304X1.574800X-0.652304X0.652304X-1.574800X-0.652304X-1.574800X-1.574800X-0.652304X270.000000*%
%TD*%
%TA.AperFunction,ComponentPad*%
%ADD14C,1.879600*%
%TD*%
%TA.AperFunction,ComponentPad*%
%ADD15C,1.430000*%
%TD*%
%TA.AperFunction,ComponentPad*%
%ADD16C,1.581000*%
%TD*%
%TA.AperFunction,ComponentPad*%
%ADD17O,3.048000X1.524000*%
%TD*%
%TA.AperFunction,Conductor*%
%ADD18C,0.200000*%
%TD*%
G04 APERTURE END LIST*
D10*
D11*
X192836657Y-59693842D02*
X192836657Y-58193842D01*
X193693800Y-59693842D02*
X193050943Y-58836699D01*
X193693800Y-58193842D02*
X192836657Y-59050985D01*
X194979515Y-59693842D02*
X194979515Y-58908128D01*
X194979515Y-58908128D02*
X194908086Y-58765271D01*
X194908086Y-58765271D02*
X194765229Y-58693842D01*
X194765229Y-58693842D02*
X194479515Y-58693842D01*
X194479515Y-58693842D02*
X194336657Y-58765271D01*
X194979515Y-59622414D02*
X194836657Y-59693842D01*
X194836657Y-59693842D02*
X194479515Y-59693842D01*
X194479515Y-59693842D02*
X194336657Y-59622414D01*
X194336657Y-59622414D02*
X194265229Y-59479556D01*
X194265229Y-59479556D02*
X194265229Y-59336699D01*
X194265229Y-59336699D02*
X194336657Y-59193842D01*
X194336657Y-59193842D02*
X194479515Y-59122414D01*
X194479515Y-59122414D02*
X194836657Y-59122414D01*
X194836657Y-59122414D02*
X194979515Y-59050985D01*
X195479515Y-58693842D02*
X196050943Y-58693842D01*
X195693800Y-59693842D02*
X195693800Y-58408128D01*
X195693800Y-58408128D02*
X195765229Y-58265271D01*
X195765229Y-58265271D02*
X195908086Y-58193842D01*
X195908086Y-58193842D02*
X196050943Y-58193842D01*
X196336658Y-58693842D02*
X196908086Y-58693842D01*
X196550943Y-59693842D02*
X196550943Y-58408128D01*
X196550943Y-58408128D02*
X196622372Y-58265271D01*
X196622372Y-58265271D02*
X196765229Y-58193842D01*
X196765229Y-58193842D02*
X196908086Y-58193842D01*
X197979515Y-59622414D02*
X197836658Y-59693842D01*
X197836658Y-59693842D02*
X197550944Y-59693842D01*
X197550944Y-59693842D02*
X197408086Y-59622414D01*
X197408086Y-59622414D02*
X197336658Y-59479556D01*
X197336658Y-59479556D02*
X197336658Y-58908128D01*
X197336658Y-58908128D02*
X197408086Y-58765271D01*
X197408086Y-58765271D02*
X197550944Y-58693842D01*
X197550944Y-58693842D02*
X197836658Y-58693842D01*
X197836658Y-58693842D02*
X197979515Y-58765271D01*
X197979515Y-58765271D02*
X198050944Y-58908128D01*
X198050944Y-58908128D02*
X198050944Y-59050985D01*
X198050944Y-59050985D02*
X197336658Y-59193842D01*
X198693800Y-59693842D02*
X198693800Y-58693842D01*
X198693800Y-58193842D02*
X198622372Y-58265271D01*
X198622372Y-58265271D02*
X198693800Y-58336699D01*
X198693800Y-58336699D02*
X198765229Y-58265271D01*
X198765229Y-58265271D02*
X198693800Y-58193842D01*
X198693800Y-58193842D02*
X198693800Y-58336699D01*
X199408086Y-58693842D02*
X199408086Y-59693842D01*
X199408086Y-58836699D02*
X199479515Y-58765271D01*
X199479515Y-58765271D02*
X199622372Y-58693842D01*
X199622372Y-58693842D02*
X199836658Y-58693842D01*
X199836658Y-58693842D02*
X199979515Y-58765271D01*
X199979515Y-58765271D02*
X200050944Y-58908128D01*
X200050944Y-58908128D02*
X200050944Y-59693842D01*
X201336658Y-59622414D02*
X201193801Y-59693842D01*
X201193801Y-59693842D02*
X200908087Y-59693842D01*
X200908087Y-59693842D02*
X200765229Y-59622414D01*
X200765229Y-59622414D02*
X200693801Y-59479556D01*
X200693801Y-59479556D02*
X200693801Y-58908128D01*
X200693801Y-58908128D02*
X200765229Y-58765271D01*
X200765229Y-58765271D02*
X200908087Y-58693842D01*
X200908087Y-58693842D02*
X201193801Y-58693842D01*
X201193801Y-58693842D02*
X201336658Y-58765271D01*
X201336658Y-58765271D02*
X201408087Y-58908128D01*
X201408087Y-58908128D02*
X201408087Y-59050985D01*
X201408087Y-59050985D02*
X200693801Y-59193842D01*
X203979515Y-59693842D02*
X203122372Y-59693842D01*
X203550943Y-59693842D02*
X203550943Y-58193842D01*
X203550943Y-58193842D02*
X203408086Y-58408128D01*
X203408086Y-58408128D02*
X203265229Y-58550985D01*
X203265229Y-58550985D02*
X203122372Y-58622414D01*
X204622371Y-59550985D02*
X204693800Y-59622414D01*
X204693800Y-59622414D02*
X204622371Y-59693842D01*
X204622371Y-59693842D02*
X204550943Y-59622414D01*
X204550943Y-59622414D02*
X204622371Y-59550985D01*
X204622371Y-59550985D02*
X204622371Y-59693842D01*
X205622372Y-58193842D02*
X205765229Y-58193842D01*
X205765229Y-58193842D02*
X205908086Y-58265271D01*
X205908086Y-58265271D02*
X205979515Y-58336699D01*
X205979515Y-58336699D02*
X206050943Y-58479556D01*
X206050943Y-58479556D02*
X206122372Y-58765271D01*
X206122372Y-58765271D02*
X206122372Y-59122414D01*
X206122372Y-59122414D02*
X206050943Y-59408128D01*
X206050943Y-59408128D02*
X205979515Y-59550985D01*
X205979515Y-59550985D02*
X205908086Y-59622414D01*
X205908086Y-59622414D02*
X205765229Y-59693842D01*
X205765229Y-59693842D02*
X205622372Y-59693842D01*
X205622372Y-59693842D02*
X205479515Y-59622414D01*
X205479515Y-59622414D02*
X205408086Y-59550985D01*
X205408086Y-59550985D02*
X205336657Y-59408128D01*
X205336657Y-59408128D02*
X205265229Y-59122414D01*
X205265229Y-59122414D02*
X205265229Y-58765271D01*
X205265229Y-58765271D02*
X205336657Y-58479556D01*
X205336657Y-58479556D02*
X205408086Y-58336699D01*
X205408086Y-58336699D02*
X205479515Y-58265271D01*
X205479515Y-58265271D02*
X205622372Y-58193842D01*
X208693800Y-58265271D02*
X208550943Y-58193842D01*
X208550943Y-58193842D02*
X208336657Y-58193842D01*
X208336657Y-58193842D02*
X208122371Y-58265271D01*
X208122371Y-58265271D02*
X207979514Y-58408128D01*
X207979514Y-58408128D02*
X207908085Y-58550985D01*
X207908085Y-58550985D02*
X207836657Y-58836699D01*
X207836657Y-58836699D02*
X207836657Y-59050985D01*
X207836657Y-59050985D02*
X207908085Y-59336699D01*
X207908085Y-59336699D02*
X207979514Y-59479556D01*
X207979514Y-59479556D02*
X208122371Y-59622414D01*
X208122371Y-59622414D02*
X208336657Y-59693842D01*
X208336657Y-59693842D02*
X208479514Y-59693842D01*
X208479514Y-59693842D02*
X208693800Y-59622414D01*
X208693800Y-59622414D02*
X208765228Y-59550985D01*
X208765228Y-59550985D02*
X208765228Y-59050985D01*
X208765228Y-59050985D02*
X208479514Y-59050985D01*
X209979514Y-59622414D02*
X209836657Y-59693842D01*
X209836657Y-59693842D02*
X209550943Y-59693842D01*
X209550943Y-59693842D02*
X209408085Y-59622414D01*
X209408085Y-59622414D02*
X209336657Y-59479556D01*
X209336657Y-59479556D02*
X209336657Y-58908128D01*
X209336657Y-58908128D02*
X209408085Y-58765271D01*
X209408085Y-58765271D02*
X209550943Y-58693842D01*
X209550943Y-58693842D02*
X209836657Y-58693842D01*
X209836657Y-58693842D02*
X209979514Y-58765271D01*
X209979514Y-58765271D02*
X210050943Y-58908128D01*
X210050943Y-58908128D02*
X210050943Y-59050985D01*
X210050943Y-59050985D02*
X209336657Y-59193842D01*
X210693799Y-58693842D02*
X210693799Y-59693842D01*
X210693799Y-58836699D02*
X210765228Y-58765271D01*
X210765228Y-58765271D02*
X210908085Y-58693842D01*
X210908085Y-58693842D02*
X211122371Y-58693842D01*
X211122371Y-58693842D02*
X211265228Y-58765271D01*
X211265228Y-58765271D02*
X211336657Y-58908128D01*
X211336657Y-58908128D02*
X211336657Y-59693842D01*
X213193799Y-59693842D02*
X213193799Y-58193842D01*
X213908085Y-59693842D02*
X213908085Y-58193842D01*
X216193800Y-60265271D02*
X216122371Y-60193842D01*
X216122371Y-60193842D02*
X215979514Y-59979556D01*
X215979514Y-59979556D02*
X215908086Y-59836699D01*
X215908086Y-59836699D02*
X215836657Y-59622414D01*
X215836657Y-59622414D02*
X215765228Y-59265271D01*
X215765228Y-59265271D02*
X215765228Y-58979556D01*
X215765228Y-58979556D02*
X215836657Y-58622414D01*
X215836657Y-58622414D02*
X215908086Y-58408128D01*
X215908086Y-58408128D02*
X215979514Y-58265271D01*
X215979514Y-58265271D02*
X216122371Y-58050985D01*
X216122371Y-58050985D02*
X216193800Y-57979556D01*
X216765228Y-59693842D02*
X216765228Y-58193842D01*
X216765228Y-58193842D02*
X217336657Y-58193842D01*
X217336657Y-58193842D02*
X217479514Y-58265271D01*
X217479514Y-58265271D02*
X217550943Y-58336699D01*
X217550943Y-58336699D02*
X217622371Y-58479556D01*
X217622371Y-58479556D02*
X217622371Y-58693842D01*
X217622371Y-58693842D02*
X217550943Y-58836699D01*
X217550943Y-58836699D02*
X217479514Y-58908128D01*
X217479514Y-58908128D02*
X217336657Y-58979556D01*
X217336657Y-58979556D02*
X216765228Y-58979556D01*
X218908086Y-58693842D02*
X218908086Y-59693842D01*
X218265228Y-58693842D02*
X218265228Y-59479556D01*
X218265228Y-59479556D02*
X218336657Y-59622414D01*
X218336657Y-59622414D02*
X218479514Y-59693842D01*
X218479514Y-59693842D02*
X218693800Y-59693842D01*
X218693800Y-59693842D02*
X218836657Y-59622414D01*
X218836657Y-59622414D02*
X218908086Y-59550985D01*
X219622371Y-59693842D02*
X219622371Y-58193842D01*
X219622371Y-58765271D02*
X219765229Y-58693842D01*
X219765229Y-58693842D02*
X220050943Y-58693842D01*
X220050943Y-58693842D02*
X220193800Y-58765271D01*
X220193800Y-58765271D02*
X220265229Y-58836699D01*
X220265229Y-58836699D02*
X220336657Y-58979556D01*
X220336657Y-58979556D02*
X220336657Y-59408128D01*
X220336657Y-59408128D02*
X220265229Y-59550985D01*
X220265229Y-59550985D02*
X220193800Y-59622414D01*
X220193800Y-59622414D02*
X220050943Y-59693842D01*
X220050943Y-59693842D02*
X219765229Y-59693842D01*
X219765229Y-59693842D02*
X219622371Y-59622414D01*
X221193800Y-59693842D02*
X221050943Y-59622414D01*
X221050943Y-59622414D02*
X220979514Y-59479556D01*
X220979514Y-59479556D02*
X220979514Y-58193842D01*
X221765228Y-59693842D02*
X221765228Y-58693842D01*
X221765228Y-58193842D02*
X221693800Y-58265271D01*
X221693800Y-58265271D02*
X221765228Y-58336699D01*
X221765228Y-58336699D02*
X221836657Y-58265271D01*
X221836657Y-58265271D02*
X221765228Y-58193842D01*
X221765228Y-58193842D02*
X221765228Y-58336699D01*
X223122372Y-59622414D02*
X222979514Y-59693842D01*
X222979514Y-59693842D02*
X222693800Y-59693842D01*
X222693800Y-59693842D02*
X222550943Y-59622414D01*
X222550943Y-59622414D02*
X222479514Y-59550985D01*
X222479514Y-59550985D02*
X222408086Y-59408128D01*
X222408086Y-59408128D02*
X222408086Y-58979556D01*
X222408086Y-58979556D02*
X222479514Y-58836699D01*
X222479514Y-58836699D02*
X222550943Y-58765271D01*
X222550943Y-58765271D02*
X222693800Y-58693842D01*
X222693800Y-58693842D02*
X222979514Y-58693842D01*
X222979514Y-58693842D02*
X223122372Y-58765271D01*
X225408085Y-58908128D02*
X225622371Y-58979556D01*
X225622371Y-58979556D02*
X225693800Y-59050985D01*
X225693800Y-59050985D02*
X225765228Y-59193842D01*
X225765228Y-59193842D02*
X225765228Y-59408128D01*
X225765228Y-59408128D02*
X225693800Y-59550985D01*
X225693800Y-59550985D02*
X225622371Y-59622414D01*
X225622371Y-59622414D02*
X225479514Y-59693842D01*
X225479514Y-59693842D02*
X224908085Y-59693842D01*
X224908085Y-59693842D02*
X224908085Y-58193842D01*
X224908085Y-58193842D02*
X225408085Y-58193842D01*
X225408085Y-58193842D02*
X225550943Y-58265271D01*
X225550943Y-58265271D02*
X225622371Y-58336699D01*
X225622371Y-58336699D02*
X225693800Y-58479556D01*
X225693800Y-58479556D02*
X225693800Y-58622414D01*
X225693800Y-58622414D02*
X225622371Y-58765271D01*
X225622371Y-58765271D02*
X225550943Y-58836699D01*
X225550943Y-58836699D02*
X225408085Y-58908128D01*
X225408085Y-58908128D02*
X224908085Y-58908128D01*
X226979514Y-59622414D02*
X226836657Y-59693842D01*
X226836657Y-59693842D02*
X226550943Y-59693842D01*
X226550943Y-59693842D02*
X226408085Y-59622414D01*
X226408085Y-59622414D02*
X226336657Y-59479556D01*
X226336657Y-59479556D02*
X226336657Y-58908128D01*
X226336657Y-58908128D02*
X226408085Y-58765271D01*
X226408085Y-58765271D02*
X226550943Y-58693842D01*
X226550943Y-58693842D02*
X226836657Y-58693842D01*
X226836657Y-58693842D02*
X226979514Y-58765271D01*
X226979514Y-58765271D02*
X227050943Y-58908128D01*
X227050943Y-58908128D02*
X227050943Y-59050985D01*
X227050943Y-59050985D02*
X226336657Y-59193842D01*
X227479514Y-58693842D02*
X228050942Y-58693842D01*
X227693799Y-58193842D02*
X227693799Y-59479556D01*
X227693799Y-59479556D02*
X227765228Y-59622414D01*
X227765228Y-59622414D02*
X227908085Y-59693842D01*
X227908085Y-59693842D02*
X228050942Y-59693842D01*
X229193800Y-59693842D02*
X229193800Y-58908128D01*
X229193800Y-58908128D02*
X229122371Y-58765271D01*
X229122371Y-58765271D02*
X228979514Y-58693842D01*
X228979514Y-58693842D02*
X228693800Y-58693842D01*
X228693800Y-58693842D02*
X228550942Y-58765271D01*
X229193800Y-59622414D02*
X229050942Y-59693842D01*
X229050942Y-59693842D02*
X228693800Y-59693842D01*
X228693800Y-59693842D02*
X228550942Y-59622414D01*
X228550942Y-59622414D02*
X228479514Y-59479556D01*
X228479514Y-59479556D02*
X228479514Y-59336699D01*
X228479514Y-59336699D02*
X228550942Y-59193842D01*
X228550942Y-59193842D02*
X228693800Y-59122414D01*
X228693800Y-59122414D02*
X229050942Y-59122414D01*
X229050942Y-59122414D02*
X229193800Y-59050985D01*
X229765228Y-60265271D02*
X229836657Y-60193842D01*
X229836657Y-60193842D02*
X229979514Y-59979556D01*
X229979514Y-59979556D02*
X230050943Y-59836699D01*
X230050943Y-59836699D02*
X230122371Y-59622414D01*
X230122371Y-59622414D02*
X230193800Y-59265271D01*
X230193800Y-59265271D02*
X230193800Y-58979556D01*
X230193800Y-58979556D02*
X230122371Y-58622414D01*
X230122371Y-58622414D02*
X230050943Y-58408128D01*
X230050943Y-58408128D02*
X229979514Y-58265271D01*
X229979514Y-58265271D02*
X229836657Y-58050985D01*
X229836657Y-58050985D02*
X229765228Y-57979556D01*
D12*
G36*
X199381187Y-62223014D02*
G01*
X199381187Y-61218687D01*
X199683804Y-61218687D01*
X199865521Y-61903788D01*
X200045161Y-61218687D01*
X200348511Y-61218687D01*
X200348511Y-62223014D01*
X200160627Y-62223014D01*
X200160627Y-61432460D01*
X199961874Y-62223014D01*
X199767152Y-62223014D01*
X199569071Y-61432460D01*
X199569071Y-62223014D01*
X199381187Y-62223014D01*
G37*
G36*
X200917597Y-61480794D02*
G01*
X200979519Y-61491679D01*
X201022804Y-61507199D01*
X201062236Y-61530615D01*
X201091135Y-61556480D01*
X201111281Y-61584868D01*
X201123788Y-61617990D01*
X201133146Y-61672746D01*
X201136927Y-61757731D01*
X201134912Y-61983167D01*
X201137651Y-62073027D01*
X201144132Y-62125072D01*
X201156882Y-62171040D01*
X201178631Y-62223014D01*
X200988732Y-62223014D01*
X200970292Y-62167082D01*
X200963453Y-62144856D01*
X200911761Y-62188163D01*
X200858246Y-62218129D01*
X200800649Y-62236388D01*
X200738689Y-62242553D01*
X200682933Y-62238308D01*
X200635869Y-62226338D01*
X200595981Y-62207349D01*
X200562101Y-62181431D01*
X200533845Y-62148824D01*
X200513904Y-62112733D01*
X200501757Y-62072432D01*
X200497560Y-62026886D01*
X200499286Y-62006248D01*
X200689474Y-62006248D01*
X200692808Y-62032035D01*
X200702661Y-62055122D01*
X200719516Y-62076285D01*
X200741101Y-62092521D01*
X200766256Y-62102350D01*
X200796025Y-62105777D01*
X200829565Y-62102084D01*
X200862357Y-62090877D01*
X200895065Y-62071461D01*
X200924243Y-62042058D01*
X200940861Y-62007652D01*
X200946004Y-61977391D01*
X200948371Y-61913619D01*
X200948371Y-61875212D01*
X200831562Y-61904704D01*
X200758968Y-61923856D01*
X200727026Y-61938348D01*
X200705684Y-61958389D01*
X200693550Y-61980693D01*
X200689474Y-62006248D01*
X200499286Y-62006248D01*
X200500936Y-61986523D01*
X200510767Y-61950026D01*
X200526930Y-61916672D01*
X200549046Y-61887007D01*
X200576285Y-61862413D01*
X200609240Y-61842544D01*
X200668505Y-61820018D01*
X200761892Y-61797542D01*
X200885751Y-61770415D01*
X200948371Y-61750159D01*
X200948371Y-61730498D01*
X200944784Y-61693567D01*
X200935319Y-61667465D01*
X200921016Y-61649348D01*
X200901001Y-61637285D01*
X200868383Y-61628587D01*
X200817884Y-61625107D01*
X200770375Y-61630826D01*
X200737956Y-61645929D01*
X200713408Y-61672435D01*
X200691550Y-61718896D01*
X200517344Y-61687633D01*
X200542915Y-61619507D01*
X200576677Y-61567359D01*
X200618399Y-61528326D01*
X200654810Y-61507398D01*
X200700995Y-61491197D01*
X200759082Y-61480515D01*
X200831562Y-61476607D01*
X200917597Y-61480794D01*
G37*
G36*
X201991105Y-62223014D02*
G01*
X201812808Y-62223014D01*
X201812808Y-62116463D01*
X201780761Y-62155249D01*
X201745887Y-62186389D01*
X201707966Y-62210618D01*
X201646458Y-62234777D01*
X201586028Y-62242553D01*
X201526003Y-62236241D01*
X201471112Y-62217632D01*
X201420027Y-62186322D01*
X201371888Y-62140765D01*
X201334553Y-62087850D01*
X201306790Y-62024366D01*
X201289074Y-61948227D01*
X201282740Y-61856832D01*
X201283470Y-61845964D01*
X201478806Y-61845964D01*
X201483268Y-61925174D01*
X201494728Y-61980324D01*
X201510924Y-62017422D01*
X201537352Y-62051864D01*
X201567247Y-62075278D01*
X201601249Y-62089242D01*
X201640678Y-62094053D01*
X201682220Y-62087814D01*
X201719308Y-62069189D01*
X201753396Y-62036595D01*
X201777695Y-61995586D01*
X201793827Y-61939812D01*
X201799863Y-61864831D01*
X201793722Y-61780451D01*
X201777804Y-61721417D01*
X201754739Y-61681222D01*
X201721475Y-61649759D01*
X201683567Y-61631386D01*
X201639334Y-61625107D01*
X201596335Y-61631236D01*
X201558702Y-61649315D01*
X201524906Y-61680489D01*
X201500752Y-61720089D01*
X201484774Y-61773824D01*
X201478806Y-61845964D01*
X201283470Y-61845964D01*
X201289056Y-61762808D01*
X201306531Y-61686222D01*
X201333575Y-61623976D01*
X201369507Y-61573572D01*
X201416125Y-61530872D01*
X201467448Y-61500964D01*
X201524494Y-61482847D01*
X201588776Y-61476607D01*
X201647073Y-61482824D01*
X201700801Y-61501221D01*
X201751232Y-61532309D01*
X201799191Y-61577724D01*
X201799191Y-61218687D01*
X201991105Y-61218687D01*
X201991105Y-62223014D01*
G37*
G36*
X202536568Y-61483839D02*
G01*
X202604202Y-61504440D01*
X202662398Y-61537726D01*
X202712720Y-61584318D01*
X202743798Y-61627728D01*
X202768941Y-61680563D01*
X202787732Y-61744518D01*
X202799272Y-61821647D01*
X202802235Y-61914291D01*
X202321321Y-61914291D01*
X202327982Y-61969347D01*
X202343752Y-62012653D01*
X202367789Y-62046731D01*
X202399903Y-62073077D01*
X202436305Y-62088691D01*
X202478431Y-62094053D01*
X202520651Y-62087814D01*
X202554268Y-62069995D01*
X202580185Y-62040365D01*
X202600735Y-61992448D01*
X202791977Y-62023711D01*
X202761647Y-62091095D01*
X202722856Y-62144717D01*
X202675473Y-62186621D01*
X202619930Y-62216907D01*
X202554336Y-62235850D01*
X202476354Y-62242553D01*
X202400469Y-62236925D01*
X202336295Y-62221053D01*
X202281832Y-62195900D01*
X202235517Y-62161647D01*
X202196330Y-62117684D01*
X202165878Y-62066321D01*
X202143513Y-62007931D01*
X202129499Y-61941327D01*
X202124584Y-61865076D01*
X202129535Y-61797054D01*
X202324741Y-61797054D01*
X202611665Y-61797054D01*
X202605295Y-61742345D01*
X202590585Y-61700609D01*
X202568617Y-61668949D01*
X202539017Y-61644399D01*
X202506183Y-61630004D01*
X202468905Y-61625107D01*
X202429052Y-61630350D01*
X202394911Y-61645601D01*
X202365041Y-61671391D01*
X202343053Y-61704437D01*
X202329359Y-61745577D01*
X202324741Y-61797054D01*
X202129535Y-61797054D01*
X202131209Y-61774061D01*
X202149810Y-61697780D01*
X202179134Y-61633692D01*
X202218861Y-61579800D01*
X202269380Y-61534461D01*
X202325122Y-61502611D01*
X202387200Y-61483275D01*
X202457242Y-61476607D01*
X202536568Y-61483839D01*
G37*
G36*
X203530873Y-61577724D02*
G01*
X203578832Y-61532309D01*
X203629263Y-61501221D01*
X203682991Y-61482824D01*
X203741288Y-61476607D01*
X203805570Y-61482847D01*
X203862616Y-61500964D01*
X203913940Y-61530872D01*
X203960557Y-61573572D01*
X203996665Y-61624022D01*
X204023696Y-61685622D01*
X204041071Y-61760665D01*
X204047324Y-61852009D01*
X204040953Y-61946537D01*
X204023234Y-62024404D01*
X203995660Y-62088492D01*
X203958847Y-62141131D01*
X203911072Y-62186405D01*
X203860006Y-62217613D01*
X203804762Y-62236223D01*
X203743975Y-62242553D01*
X203703310Y-62239026D01*
X203662617Y-62228305D01*
X203621365Y-62209885D01*
X203583368Y-62185326D01*
X203548722Y-62154388D01*
X203517195Y-62116463D01*
X203517195Y-62223014D01*
X203338898Y-62223014D01*
X203338898Y-61845964D01*
X203529530Y-61845964D01*
X203534335Y-61922421D01*
X203546885Y-61977412D01*
X203565067Y-62016018D01*
X203593174Y-62051298D01*
X203624128Y-62075141D01*
X203658525Y-62089239D01*
X203697569Y-62094053D01*
X203737340Y-62088054D01*
X203772965Y-62070116D01*
X203805829Y-62038671D01*
X203828928Y-61999048D01*
X203844612Y-61942678D01*
X203850587Y-61864099D01*
X203844458Y-61780231D01*
X203828550Y-61721405D01*
X203805463Y-61681222D01*
X203772199Y-61649759D01*
X203734291Y-61631386D01*
X203690058Y-61625107D01*
X203646582Y-61631203D01*
X203608839Y-61649106D01*
X203575264Y-61679817D01*
X203551389Y-61718995D01*
X203535497Y-61772861D01*
X203529530Y-61845964D01*
X203338898Y-61845964D01*
X203338898Y-61218687D01*
X203530873Y-61218687D01*
X203530873Y-61577724D01*
G37*
G36*
X204111133Y-61496147D02*
G01*
X204315381Y-61496147D01*
X204488854Y-62013514D01*
X204658298Y-61496147D01*
X204857051Y-61496147D01*
X204600901Y-62196086D01*
X204555166Y-62324863D01*
X204528857Y-62384033D01*
X204506989Y-62421705D01*
X204482024Y-62452375D01*
X204454355Y-62475988D01*
X204422243Y-62494059D01*
X204381265Y-62508411D01*
X204336329Y-62516964D01*
X204283263Y-62520013D01*
X204228354Y-62517118D01*
X204174636Y-62508472D01*
X204157539Y-62358629D01*
X204201665Y-62365500D01*
X204238811Y-62367605D01*
X204281642Y-62362687D01*
X204313779Y-62349240D01*
X204337851Y-62327916D01*
X204365516Y-62284274D01*
X204387066Y-62226921D01*
X204111133Y-61496147D01*
G37*
G36*
X206095954Y-61203603D02*
G01*
X206175126Y-61216557D01*
X206248206Y-61237567D01*
X206315913Y-61266436D01*
X206379767Y-61304179D01*
X206434645Y-61348415D01*
X206481390Y-61399364D01*
X206520528Y-61457556D01*
X206551427Y-61520825D01*
X206573431Y-61586653D01*
X206586732Y-61655581D01*
X206591236Y-61728239D01*
X206584482Y-61813961D01*
X206564523Y-61894554D01*
X206531287Y-61971135D01*
X206484013Y-62044594D01*
X206425339Y-62110541D01*
X206362364Y-62159978D01*
X206294467Y-62194763D01*
X206220530Y-62215808D01*
X206139020Y-62223014D01*
X206086557Y-62217439D01*
X206053596Y-62203352D01*
X206030014Y-62179504D01*
X206015372Y-62145650D01*
X205972637Y-62180094D01*
X205927902Y-62203970D01*
X205880514Y-62218201D01*
X205829565Y-62223014D01*
X205774269Y-62217948D01*
X205725234Y-62203275D01*
X205681226Y-62179180D01*
X205641375Y-62145039D01*
X205609370Y-62103966D01*
X205586160Y-62056567D01*
X205571672Y-62001630D01*
X205566576Y-61937555D01*
X205567177Y-61929250D01*
X205743530Y-61929250D01*
X205748165Y-61986212D01*
X205760422Y-62027520D01*
X205778701Y-62056989D01*
X205804385Y-62080004D01*
X205833028Y-62093408D01*
X205865774Y-62097961D01*
X205903506Y-62093188D01*
X205938863Y-62078849D01*
X205963723Y-62062019D01*
X205990093Y-62035801D01*
X206022078Y-61987960D01*
X206052619Y-61914291D01*
X206072685Y-61835215D01*
X206078936Y-61765363D01*
X206074411Y-61715087D01*
X206062088Y-61676469D01*
X206043033Y-61646906D01*
X206016848Y-61623810D01*
X205987100Y-61610222D01*
X205952541Y-61605568D01*
X205915056Y-61610429D01*
X205879170Y-61625181D01*
X205843914Y-61650997D01*
X205814597Y-61683943D01*
X205789459Y-61726467D01*
X205768809Y-61780445D01*
X205749358Y-61862572D01*
X205743530Y-61929250D01*
X205567177Y-61929250D01*
X205572276Y-61858789D01*
X205589127Y-61784369D01*
X205617126Y-61713413D01*
X205656763Y-61645196D01*
X205705243Y-61584903D01*
X205756823Y-61540318D01*
X205811934Y-61509329D01*
X205871497Y-61490752D01*
X205936848Y-61484423D01*
X205995860Y-61490531D01*
X206044081Y-61507719D01*
X206083826Y-61535397D01*
X206116489Y-61574488D01*
X206133586Y-61496147D01*
X206313898Y-61496147D01*
X206210767Y-61987747D01*
X206201180Y-62048075D01*
X206203338Y-62063700D01*
X206208996Y-62073781D01*
X206217711Y-62080227D01*
X206227802Y-62082330D01*
X206261488Y-62074173D01*
X206312494Y-62042701D01*
X206355297Y-62004868D01*
X206392827Y-61958761D01*
X206425212Y-61903361D01*
X206449289Y-61843879D01*
X206463521Y-61783748D01*
X206468260Y-61722316D01*
X206463236Y-61656265D01*
X206448590Y-61596024D01*
X206424559Y-61540585D01*
X206390845Y-61489154D01*
X206346627Y-61441192D01*
X206296654Y-61402107D01*
X206239014Y-61370998D01*
X206172563Y-61347883D01*
X206095855Y-61333265D01*
X206007190Y-61328108D01*
X205914295Y-61333285D01*
X205831896Y-61348110D01*
X205758619Y-61371797D01*
X205693277Y-61403945D01*
X205632780Y-61445780D01*
X205580654Y-61494914D01*
X205536255Y-61551818D01*
X205499287Y-61617291D01*
X205462902Y-61710768D01*
X205441293Y-61805921D01*
X205434074Y-61903727D01*
X205438728Y-61975305D01*
X205452432Y-62042623D01*
X205475053Y-62106389D01*
X205506798Y-62167204D01*
X205546940Y-62222614D01*
X205593967Y-62269575D01*
X205648385Y-62308741D01*
X205711046Y-62340372D01*
X205800297Y-62370028D01*
X205900062Y-62388520D01*
X206011953Y-62394960D01*
X206120211Y-62389382D01*
X206213088Y-62373668D01*
X206292710Y-62349043D01*
X206367015Y-62312689D01*
X206429630Y-62266878D01*
X206481937Y-62211290D01*
X206627445Y-62211290D01*
X206588757Y-62277927D01*
X206541311Y-62336553D01*
X206484596Y-62387866D01*
X206417701Y-62432207D01*
X206335764Y-62471003D01*
X206243678Y-62499665D01*
X206139954Y-62517638D01*
X206022883Y-62523921D01*
X205909319Y-62518681D01*
X205807420Y-62503635D01*
X205715873Y-62479598D01*
X205633499Y-62447106D01*
X205555463Y-62403259D01*
X205489576Y-62351122D01*
X205434553Y-62290435D01*
X205389622Y-62220449D01*
X205354751Y-62144127D01*
X205329861Y-62064734D01*
X205314795Y-61981674D01*
X205309694Y-61894263D01*
X205315452Y-61798483D01*
X205332507Y-61706934D01*
X205360784Y-61618870D01*
X205400552Y-61533638D01*
X205451075Y-61454081D01*
X205509113Y-61386435D01*
X205574936Y-61329593D01*
X205649191Y-61282862D01*
X205729246Y-61246863D01*
X205815446Y-61220740D01*
X205908659Y-61204669D01*
X206009877Y-61199147D01*
X206095954Y-61203603D01*
G37*
G36*
X207065983Y-61496147D02*
G01*
X207065983Y-61648554D01*
X206934824Y-61648554D01*
X206934824Y-61943722D01*
X206938549Y-62048197D01*
X206944639Y-62061627D01*
X206955646Y-62072682D01*
X206970107Y-62079823D01*
X206988130Y-62082330D01*
X207017244Y-62078527D01*
X207065311Y-62063889D01*
X207081675Y-62213671D01*
X207036217Y-62229414D01*
X206985914Y-62239171D01*
X206930001Y-62242553D01*
X206879855Y-62238006D01*
X206836395Y-62224967D01*
X206799183Y-62203968D01*
X206775273Y-62179477D01*
X206759448Y-62148370D01*
X206748345Y-62104067D01*
X206744153Y-62061770D01*
X206742178Y-61967597D01*
X206742178Y-61648554D01*
X206654067Y-61648554D01*
X206654067Y-61496147D01*
X206742178Y-61496147D01*
X206742178Y-61355463D01*
X206934824Y-61242134D01*
X206934824Y-61496147D01*
X207065983Y-61496147D01*
G37*
G36*
X207676834Y-62223014D02*
G01*
X207676834Y-62114386D01*
X207647807Y-62150366D01*
X207613245Y-62181316D01*
X207572604Y-62207504D01*
X207528506Y-62227072D01*
X207483293Y-62238672D01*
X207436377Y-62242553D01*
X207388461Y-62238832D01*
X207344979Y-62228003D01*
X207305158Y-62210252D01*
X207269691Y-62185534D01*
X207241943Y-62155481D01*
X207221138Y-62119516D01*
X207207694Y-62079606D01*
X207198589Y-62026797D01*
X207195187Y-61958010D01*
X207195187Y-61496147D01*
X207387162Y-61496147D01*
X207387162Y-61830759D01*
X207390796Y-61969981D01*
X207397726Y-62018949D01*
X207412801Y-62050146D01*
X207436316Y-62073842D01*
X207467104Y-62088713D01*
X207507391Y-62094053D01*
X207554235Y-62087226D01*
X207595501Y-62067003D01*
X207628667Y-62036184D01*
X207648807Y-61999776D01*
X207658339Y-61945483D01*
X207663157Y-61803343D01*
X207663157Y-61496147D01*
X207855131Y-61496147D01*
X207855131Y-62223014D01*
X207676834Y-62223014D01*
G37*
G36*
X208237921Y-62223014D02*
G01*
X208045946Y-62223014D01*
X208045946Y-61496147D01*
X208224243Y-61496147D01*
X208224243Y-61599278D01*
X208271346Y-61534023D01*
X208306553Y-61501398D01*
X208345333Y-61482881D01*
X208389535Y-61476607D01*
X208432303Y-61480545D01*
X208474228Y-61492431D01*
X208515931Y-61512755D01*
X208456518Y-61679940D01*
X208407829Y-61655752D01*
X208366332Y-61648554D01*
X208328598Y-61654323D01*
X208298005Y-61670964D01*
X208274582Y-61699557D01*
X208253980Y-61751869D01*
X208243114Y-61826225D01*
X208237921Y-61997089D01*
X208237921Y-62223014D01*
G37*
G36*
X208591524Y-62223014D02*
G01*
X208591524Y-61218687D01*
X208783437Y-61218687D01*
X208783437Y-61752113D01*
X209008202Y-61496147D01*
X209244568Y-61496147D01*
X208996600Y-61761822D01*
X209262337Y-62223014D01*
X209055341Y-62223014D01*
X208872953Y-61895179D01*
X208783437Y-61990311D01*
X208783437Y-62223014D01*
X208591524Y-62223014D01*
G37*
G36*
X209376032Y-61394542D02*
G01*
X209376032Y-61218687D01*
X209567946Y-61218687D01*
X209567946Y-61394542D01*
X209376032Y-61394542D01*
G37*
G36*
X209376032Y-62223014D02*
G01*
X209376032Y-61496147D01*
X209567946Y-61496147D01*
X209567946Y-62223014D01*
X209376032Y-62223014D01*
G37*
G36*
X209697211Y-62015896D02*
G01*
X209889858Y-61992448D01*
X209901349Y-62027679D01*
X209917981Y-62055405D01*
X209939683Y-62076956D01*
X209966272Y-62092219D01*
X210000639Y-62102138D01*
X210044891Y-62105777D01*
X210093985Y-62102112D01*
X210130361Y-62092361D01*
X210156937Y-62077811D01*
X210175853Y-62055049D01*
X210182216Y-62025482D01*
X210178698Y-62004746D01*
X210168539Y-61988418D01*
X210149144Y-61976571D01*
X210104364Y-61962590D01*
X209946598Y-61922448D01*
X209855874Y-61891166D01*
X209809929Y-61867335D01*
X209771849Y-61834245D01*
X209745422Y-61796400D01*
X209729402Y-61752870D01*
X209723834Y-61702044D01*
X209728530Y-61656019D01*
X209742273Y-61614587D01*
X209765194Y-61576689D01*
X209798267Y-61541637D01*
X209836754Y-61515225D01*
X209886269Y-61494912D01*
X209949378Y-61481522D01*
X210029198Y-61476607D01*
X210106064Y-61480423D01*
X210166713Y-61490766D01*
X210214023Y-61506268D01*
X210250482Y-61526005D01*
X210293038Y-61563347D01*
X210326225Y-61611330D01*
X210350255Y-61672002D01*
X210169271Y-61707173D01*
X210152036Y-61666408D01*
X210125186Y-61637563D01*
X210102292Y-61624844D01*
X210072111Y-61616479D01*
X210032618Y-61613383D01*
X209981973Y-61616407D01*
X209947122Y-61624144D01*
X209923991Y-61635060D01*
X209907466Y-61652899D01*
X209902131Y-61674810D01*
X209906736Y-61693902D01*
X209921243Y-61710470D01*
X209963113Y-61728924D01*
X210100578Y-61765669D01*
X210202455Y-61794501D01*
X210271044Y-61823694D01*
X210314718Y-61852375D01*
X210347597Y-61890560D01*
X210367718Y-61937759D01*
X210374863Y-61996723D01*
X210369719Y-62045066D01*
X210354524Y-62089422D01*
X210328897Y-62130861D01*
X210291515Y-62170074D01*
X210248361Y-62199900D01*
X210194499Y-62222514D01*
X210127618Y-62237216D01*
X210044891Y-62242553D01*
X209969913Y-62238174D01*
X209907015Y-62225936D01*
X209854319Y-62206872D01*
X209810234Y-62181553D01*
X209770634Y-62148188D01*
X209738928Y-62109858D01*
X209714502Y-62066044D01*
X209697211Y-62015896D01*
G37*
G36*
X210733778Y-61218687D02*
G01*
X210733778Y-61586456D01*
X210784204Y-61537033D01*
X210837339Y-61503289D01*
X210894068Y-61483347D01*
X210955794Y-61476607D01*
X211019694Y-61482974D01*
X211075351Y-61501337D01*
X211123206Y-61530412D01*
X211155646Y-61564596D01*
X211178322Y-61605051D01*
X211192527Y-61649837D01*
X211199478Y-61702999D01*
X211202419Y-61794856D01*
X211202419Y-62223014D01*
X211010444Y-62223014D01*
X211010444Y-61837904D01*
X211006807Y-61733539D01*
X210999514Y-61692396D01*
X210984426Y-61664706D01*
X210960924Y-61643303D01*
X210930770Y-61629928D01*
X210891559Y-61625107D01*
X210845897Y-61631052D01*
X210806196Y-61648432D01*
X210774111Y-61677129D01*
X210751180Y-61718835D01*
X210738852Y-61771601D01*
X210733778Y-61857809D01*
X210733778Y-62223014D01*
X210541803Y-62223014D01*
X210541803Y-61218687D01*
X210733778Y-61218687D01*
G37*
G36*
X211581117Y-62223014D02*
G01*
X211389142Y-62223014D01*
X211389142Y-61496147D01*
X211567440Y-61496147D01*
X211567440Y-61599278D01*
X211614542Y-61534023D01*
X211649749Y-61501398D01*
X211688529Y-61482881D01*
X211732731Y-61476607D01*
X211775499Y-61480545D01*
X211817424Y-61492431D01*
X211859127Y-61512755D01*
X211799715Y-61679940D01*
X211751025Y-61655752D01*
X211709528Y-61648554D01*
X211671794Y-61654323D01*
X211641201Y-61670964D01*
X211617778Y-61699557D01*
X211597176Y-61751869D01*
X211586310Y-61826225D01*
X211581117Y-61997089D01*
X211581117Y-62223014D01*
G37*
G36*
X212297489Y-61483839D02*
G01*
X212365123Y-61504440D01*
X212423320Y-61537726D01*
X212473642Y-61584318D01*
X212504719Y-61627728D01*
X212529862Y-61680563D01*
X212548653Y-61744518D01*
X212560193Y-61821647D01*
X212563157Y-61914291D01*
X212082242Y-61914291D01*
X212088904Y-61969347D01*
X212104673Y-62012653D01*
X212128710Y-62046731D01*
X212160824Y-62073077D01*
X212197226Y-62088691D01*
X212239352Y-62094053D01*
X212281573Y-62087814D01*
X212315189Y-62069995D01*
X212341106Y-62040365D01*
X212361656Y-61992448D01*
X212552898Y-62023711D01*
X212522568Y-62091095D01*
X212483777Y-62144717D01*
X212436395Y-62186621D01*
X212380852Y-62216907D01*
X212315257Y-62235850D01*
X212237276Y-62242553D01*
X212161390Y-62236925D01*
X212097216Y-62221053D01*
X212042753Y-62195900D01*
X211996438Y-62161647D01*
X211957251Y-62117684D01*
X211926799Y-62066321D01*
X211904434Y-62007931D01*
X211890420Y-61941327D01*
X211885505Y-61865076D01*
X211890456Y-61797054D01*
X212085662Y-61797054D01*
X212372586Y-61797054D01*
X212366216Y-61742345D01*
X212351506Y-61700609D01*
X212329538Y-61668949D01*
X212299938Y-61644399D01*
X212267104Y-61630004D01*
X212229826Y-61625107D01*
X212189973Y-61630350D01*
X212155832Y-61645601D01*
X212125962Y-61671391D01*
X212103974Y-61704437D01*
X212090280Y-61745577D01*
X212085662Y-61797054D01*
X211890456Y-61797054D01*
X211892130Y-61774061D01*
X211910731Y-61697780D01*
X211940055Y-61633692D01*
X211979783Y-61579800D01*
X212030301Y-61534461D01*
X212086043Y-61502611D01*
X212148121Y-61483275D01*
X212218164Y-61476607D01*
X212297489Y-61483839D01*
G37*
G36*
X212918652Y-62223014D02*
G01*
X212626293Y-61496147D01*
X212827794Y-61496147D01*
X212964448Y-61867091D01*
X213004076Y-61990983D01*
X213023860Y-61928701D01*
X213044376Y-61867091D01*
X213182373Y-61496147D01*
X213379783Y-61496147D01*
X213091515Y-62223014D01*
X212918652Y-62223014D01*
G37*
G36*
X213906752Y-61483728D02*
G01*
X213977436Y-61504229D01*
X214040060Y-61537646D01*
X214095964Y-61584624D01*
X214141680Y-61641680D01*
X214174256Y-61705242D01*
X214194241Y-61776597D01*
X214201171Y-61857504D01*
X214194181Y-61939086D01*
X214174011Y-62011135D01*
X214141114Y-62075408D01*
X214094926Y-62133193D01*
X214038439Y-62181006D01*
X213975946Y-62214813D01*
X213906210Y-62235429D01*
X213827480Y-62242553D01*
X213762069Y-62237499D01*
X213698889Y-62222401D01*
X213637215Y-62197002D01*
X213581401Y-62161688D01*
X213535862Y-62117475D01*
X213499584Y-62063523D01*
X213474190Y-62003121D01*
X213458134Y-61932350D01*
X213453155Y-61859580D01*
X213649182Y-61859580D01*
X213655645Y-61931124D01*
X213673231Y-61985969D01*
X213700412Y-62027863D01*
X213737719Y-62060617D01*
X213779307Y-62079737D01*
X213826808Y-62086238D01*
X213874295Y-62079729D01*
X213915755Y-62060604D01*
X213952837Y-62027863D01*
X213979792Y-61985971D01*
X213997305Y-61930710D01*
X214003762Y-61858176D01*
X213997360Y-61787571D01*
X213979897Y-61733166D01*
X213952837Y-61691358D01*
X213915751Y-61658580D01*
X213874291Y-61639437D01*
X213826808Y-61632923D01*
X213779311Y-61639429D01*
X213737723Y-61658568D01*
X213700412Y-61691358D01*
X213673233Y-61733214D01*
X213655646Y-61788037D01*
X213649182Y-61859580D01*
X213453155Y-61859580D01*
X213452445Y-61849200D01*
X213457613Y-61785915D01*
X213473169Y-61723840D01*
X213499584Y-61662232D01*
X213535714Y-61606303D01*
X213579996Y-61560642D01*
X213633123Y-61524235D01*
X213692322Y-61497996D01*
X213756307Y-61482060D01*
X213826136Y-61476607D01*
X213906752Y-61483728D01*
G37*
G36*
X214351747Y-62223014D02*
G01*
X214351747Y-61218687D01*
X214543661Y-61218687D01*
X214543661Y-62223014D01*
X214351747Y-62223014D01*
G37*
G36*
X215073240Y-61496147D02*
G01*
X215073240Y-61648554D01*
X214942082Y-61648554D01*
X214942082Y-61943722D01*
X214945807Y-62048197D01*
X214951897Y-62061627D01*
X214962904Y-62072682D01*
X214977365Y-62079823D01*
X214995388Y-62082330D01*
X215024501Y-62078527D01*
X215072569Y-62063889D01*
X215088933Y-62213671D01*
X215043474Y-62229414D01*
X214993172Y-62239171D01*
X214937258Y-62242553D01*
X214887113Y-62238006D01*
X214843652Y-62224967D01*
X214806441Y-62203968D01*
X214782530Y-62179477D01*
X214766706Y-62148370D01*
X214755603Y-62104067D01*
X214751411Y-62061770D01*
X214749435Y-61967597D01*
X214749435Y-61648554D01*
X214661325Y-61648554D01*
X214661325Y-61496147D01*
X214749435Y-61496147D01*
X214749435Y-61355463D01*
X214942082Y-61242134D01*
X214942082Y-61496147D01*
X215073240Y-61496147D01*
G37*
G36*
X216005286Y-61483728D02*
G01*
X216075971Y-61504229D01*
X216138595Y-61537646D01*
X216194498Y-61584624D01*
X216240214Y-61641680D01*
X216272790Y-61705242D01*
X216292775Y-61776597D01*
X216299706Y-61857504D01*
X216292715Y-61939086D01*
X216272546Y-62011135D01*
X216239649Y-62075408D01*
X216193460Y-62133193D01*
X216136973Y-62181006D01*
X216074481Y-62214813D01*
X216004745Y-62235429D01*
X215926014Y-62242553D01*
X215860604Y-62237499D01*
X215797424Y-62222401D01*
X215735749Y-62197002D01*
X215679936Y-62161688D01*
X215634397Y-62117475D01*
X215598118Y-62063523D01*
X215572724Y-62003121D01*
X215556669Y-61932350D01*
X215551689Y-61859580D01*
X215747717Y-61859580D01*
X215754179Y-61931124D01*
X215771765Y-61985969D01*
X215798947Y-62027863D01*
X215836253Y-62060617D01*
X215877842Y-62079737D01*
X215925343Y-62086238D01*
X215972829Y-62079729D01*
X216014290Y-62060604D01*
X216051372Y-62027863D01*
X216078326Y-61985971D01*
X216095839Y-61930710D01*
X216102297Y-61858176D01*
X216095895Y-61787571D01*
X216078432Y-61733166D01*
X216051372Y-61691358D01*
X216014285Y-61658580D01*
X215972825Y-61639437D01*
X215925343Y-61632923D01*
X215877846Y-61639429D01*
X215836258Y-61658568D01*
X215798947Y-61691358D01*
X215771768Y-61733214D01*
X215754181Y-61788037D01*
X215747717Y-61859580D01*
X215551689Y-61859580D01*
X215550979Y-61849200D01*
X215556147Y-61785915D01*
X215571703Y-61723840D01*
X215598118Y-61662232D01*
X215634249Y-61606303D01*
X215678531Y-61560642D01*
X215731658Y-61524235D01*
X215790857Y-61497996D01*
X215854841Y-61482060D01*
X215924671Y-61476607D01*
X216005286Y-61483728D01*
G37*
G36*
X217110165Y-62223014D02*
G01*
X216918190Y-62223014D01*
X216918190Y-61850971D01*
X216914151Y-61743152D01*
X216905856Y-61698258D01*
X216889514Y-61667140D01*
X216865922Y-61644341D01*
X216836046Y-61630093D01*
X216799305Y-61625107D01*
X216751846Y-61632033D01*
X216709851Y-61652584D01*
X216676411Y-61684526D01*
X216655507Y-61725308D01*
X216645436Y-61780177D01*
X216640852Y-61892797D01*
X216640852Y-62223014D01*
X216448877Y-62223014D01*
X216448877Y-61496147D01*
X216627174Y-61496147D01*
X216627174Y-61602698D01*
X216668661Y-61555834D01*
X216712745Y-61520863D01*
X216759834Y-61496378D01*
X216810673Y-61481636D01*
X216866288Y-61476607D01*
X216927780Y-61482506D01*
X216982365Y-61499627D01*
X217029842Y-61526772D01*
X217061988Y-61558429D01*
X217084780Y-61596365D01*
X217099540Y-61639517D01*
X217107087Y-61689769D01*
X217110165Y-61769393D01*
X217110165Y-62223014D01*
G37*
G36*
X217920746Y-62223014D02*
G01*
X217920746Y-61386726D01*
X217623563Y-61386726D01*
X217623563Y-61218687D01*
X218419428Y-61218687D01*
X218419428Y-61386726D01*
X218122918Y-61386726D01*
X218122918Y-62223014D01*
X217920746Y-62223014D01*
G37*
G36*
X218523415Y-61394542D02*
G01*
X218523415Y-61218687D01*
X218715329Y-61218687D01*
X218715329Y-61394542D01*
X218523415Y-61394542D01*
G37*
G36*
X218523415Y-62223014D02*
G01*
X218523415Y-61496147D01*
X218715329Y-61496147D01*
X218715329Y-62223014D01*
X218523415Y-62223014D01*
G37*
G36*
X218905411Y-62223014D02*
G01*
X218905411Y-61218687D01*
X219097324Y-61218687D01*
X219097324Y-61752113D01*
X219322089Y-61496147D01*
X219558455Y-61496147D01*
X219310487Y-61761822D01*
X219576224Y-62223014D01*
X219369228Y-62223014D01*
X219186839Y-61895179D01*
X219097324Y-61990311D01*
X219097324Y-62223014D01*
X218905411Y-62223014D01*
G37*
G36*
X219916698Y-62223014D02*
G01*
X219916698Y-61386726D01*
X219619516Y-61386726D01*
X219619516Y-61218687D01*
X220415381Y-61218687D01*
X220415381Y-61386726D01*
X220118870Y-61386726D01*
X220118870Y-62223014D01*
X219916698Y-62223014D01*
G37*
G36*
X220850087Y-61483728D02*
G01*
X220920772Y-61504229D01*
X220983396Y-61537646D01*
X221039299Y-61584624D01*
X221085016Y-61641680D01*
X221117592Y-61705242D01*
X221137576Y-61776597D01*
X221144507Y-61857504D01*
X221137516Y-61939086D01*
X221117347Y-62011135D01*
X221084450Y-62075408D01*
X221038261Y-62133193D01*
X220981774Y-62181006D01*
X220919282Y-62214813D01*
X220849546Y-62235429D01*
X220770815Y-62242553D01*
X220705405Y-62237499D01*
X220642225Y-62222401D01*
X220580550Y-62197002D01*
X220524737Y-62161688D01*
X220479198Y-62117475D01*
X220442919Y-62063523D01*
X220417525Y-62003121D01*
X220401470Y-61932350D01*
X220396490Y-61859580D01*
X220592518Y-61859580D01*
X220598980Y-61931124D01*
X220616567Y-61985969D01*
X220643748Y-62027863D01*
X220681054Y-62060617D01*
X220722643Y-62079737D01*
X220770144Y-62086238D01*
X220817631Y-62079729D01*
X220859091Y-62060604D01*
X220896173Y-62027863D01*
X220923127Y-61985971D01*
X220940641Y-61930710D01*
X220947098Y-61858176D01*
X220940696Y-61787571D01*
X220923233Y-61733166D01*
X220896173Y-61691358D01*
X220859086Y-61658580D01*
X220817626Y-61639437D01*
X220770144Y-61632923D01*
X220722647Y-61639429D01*
X220681059Y-61658568D01*
X220643748Y-61691358D01*
X220616569Y-61733214D01*
X220598982Y-61788037D01*
X220592518Y-61859580D01*
X220396490Y-61859580D01*
X220395780Y-61849200D01*
X220400948Y-61785915D01*
X220416504Y-61723840D01*
X220442919Y-61662232D01*
X220479050Y-61606303D01*
X220523332Y-61560642D01*
X220576459Y-61524235D01*
X220635658Y-61497996D01*
X220699642Y-61482060D01*
X220769472Y-61476607D01*
X220850087Y-61483728D01*
G37*
G36*
X221288244Y-62223014D02*
G01*
X221288244Y-61218687D01*
X221480158Y-61218687D01*
X221480158Y-61752113D01*
X221704922Y-61496147D01*
X221941288Y-61496147D01*
X221693321Y-61761822D01*
X221959057Y-62223014D01*
X221752061Y-62223014D01*
X221569673Y-61895179D01*
X221480158Y-61990311D01*
X221480158Y-62223014D01*
X221288244Y-62223014D01*
G37*
G36*
X222596836Y-62223014D02*
G01*
X222367309Y-61496147D01*
X222553788Y-61496147D01*
X222689709Y-61972481D01*
X222814762Y-61496147D01*
X222999837Y-61496147D01*
X223120798Y-61972481D01*
X223259467Y-61496147D01*
X223448694Y-61496147D01*
X223215747Y-62223014D01*
X223031283Y-62223014D01*
X222906292Y-61755533D01*
X222783315Y-62223014D01*
X222596836Y-62223014D01*
G37*
G36*
X223549933Y-61394542D02*
G01*
X223549933Y-61218687D01*
X223741846Y-61218687D01*
X223741846Y-61394542D01*
X223549933Y-61394542D01*
G37*
G36*
X223549933Y-62223014D02*
G01*
X223549933Y-61496147D01*
X223741846Y-61496147D01*
X223741846Y-62223014D01*
X223549933Y-62223014D01*
G37*
G36*
X224271426Y-61496147D02*
G01*
X224271426Y-61648554D01*
X224140268Y-61648554D01*
X224140268Y-61943722D01*
X224143992Y-62048197D01*
X224150083Y-62061627D01*
X224161089Y-62072682D01*
X224175551Y-62079823D01*
X224193574Y-62082330D01*
X224222687Y-62078527D01*
X224270754Y-62063889D01*
X224287119Y-62213671D01*
X224241660Y-62229414D01*
X224191357Y-62239171D01*
X224135444Y-62242553D01*
X224085298Y-62238006D01*
X224041838Y-62224967D01*
X224004627Y-62203968D01*
X223980716Y-62179477D01*
X223964891Y-62148370D01*
X223953788Y-62104067D01*
X223949597Y-62061770D01*
X223947621Y-61967597D01*
X223947621Y-61648554D01*
X223859510Y-61648554D01*
X223859510Y-61496147D01*
X223947621Y-61496147D01*
X223947621Y-61355463D01*
X224140268Y-61242134D01*
X224140268Y-61496147D01*
X224271426Y-61496147D01*
G37*
G36*
X224596025Y-61218687D02*
G01*
X224596025Y-61586456D01*
X224646451Y-61537033D01*
X224699586Y-61503289D01*
X224756315Y-61483347D01*
X224818041Y-61476607D01*
X224881941Y-61482974D01*
X224937598Y-61501337D01*
X224985453Y-61530412D01*
X225017893Y-61564596D01*
X225040569Y-61605051D01*
X225054774Y-61649837D01*
X225061726Y-61702999D01*
X225064666Y-61794856D01*
X225064666Y-62223014D01*
X224872691Y-62223014D01*
X224872691Y-61837904D01*
X224869054Y-61733539D01*
X224861761Y-61692396D01*
X224846673Y-61664706D01*
X224823171Y-61643303D01*
X224793017Y-61629928D01*
X224753806Y-61625107D01*
X224708145Y-61631052D01*
X224668443Y-61648432D01*
X224636358Y-61677129D01*
X224613427Y-61718835D01*
X224601099Y-61771601D01*
X224596025Y-61857809D01*
X224596025Y-62223014D01*
X224404050Y-62223014D01*
X224404050Y-61218687D01*
X224596025Y-61218687D01*
G37*
G36*
X225655245Y-62223014D02*
G01*
X225655245Y-61230411D01*
X225857478Y-61230411D01*
X225857478Y-62054974D01*
X226360252Y-62054974D01*
X226360252Y-62223014D01*
X225655245Y-62223014D01*
G37*
G36*
X227036491Y-61209052D02*
G01*
X227114746Y-61226263D01*
X227184329Y-61253955D01*
X227246500Y-61291998D01*
X227302174Y-61340869D01*
X227348325Y-61397799D01*
X227384894Y-61463174D01*
X227411962Y-61538237D01*
X227429031Y-61624594D01*
X227435043Y-61724147D01*
X227429087Y-61822849D01*
X227412168Y-61908584D01*
X227385320Y-61983215D01*
X227349030Y-62048316D01*
X227303212Y-62105105D01*
X227247955Y-62153828D01*
X227186164Y-62191764D01*
X227116920Y-62219389D01*
X227038953Y-62236566D01*
X226950709Y-62242553D01*
X226861216Y-62236561D01*
X226782405Y-62219399D01*
X226712669Y-62191858D01*
X226650694Y-62154125D01*
X226595519Y-62105777D01*
X226549593Y-62049190D01*
X226513288Y-61984555D01*
X226486481Y-61910700D01*
X226469617Y-61826106D01*
X226463689Y-61728971D01*
X226464068Y-61722132D01*
X226672028Y-61722132D01*
X226677769Y-61808791D01*
X226693626Y-61879168D01*
X226718109Y-61936165D01*
X226750552Y-61982129D01*
X226792806Y-62021073D01*
X226839437Y-62048363D01*
X226891381Y-62064904D01*
X226950037Y-62070606D01*
X227008740Y-62064924D01*
X227060508Y-62048473D01*
X227106770Y-62021387D01*
X227148485Y-61982801D01*
X227180315Y-61937292D01*
X227204510Y-61880042D01*
X227220288Y-61808464D01*
X227226032Y-61719385D01*
X227220407Y-61631180D01*
X227204997Y-61560682D01*
X227181443Y-61504648D01*
X227150561Y-61460426D01*
X227110019Y-61423267D01*
X227063909Y-61396880D01*
X227011121Y-61380660D01*
X226950037Y-61375002D01*
X226889060Y-61380700D01*
X226836121Y-61397069D01*
X226789640Y-61423770D01*
X226748537Y-61461464D01*
X226717176Y-61506245D01*
X226693302Y-61562777D01*
X226677710Y-61633672D01*
X226672028Y-61722132D01*
X226464068Y-61722132D01*
X226469335Y-61627210D01*
X226485072Y-61542138D01*
X226509484Y-61471173D01*
X226549790Y-61398395D01*
X226602663Y-61333359D01*
X226644123Y-61295517D01*
X226687207Y-61265547D01*
X226732173Y-61242806D01*
X226795710Y-61221246D01*
X226867241Y-61207764D01*
X226948022Y-61203055D01*
X227036491Y-61209052D01*
G37*
G36*
X227848485Y-62223014D02*
G01*
X227490547Y-61218687D01*
X227709816Y-61218687D01*
X227963279Y-61961185D01*
X228208499Y-61218687D01*
X228423005Y-61218687D01*
X228064334Y-62223014D01*
X227848485Y-62223014D01*
G37*
G36*
X228526014Y-62223014D02*
G01*
X228526014Y-61218687D01*
X229268574Y-61218687D01*
X229268574Y-61386726D01*
X228728186Y-61386726D01*
X228728186Y-61609475D01*
X229230960Y-61609475D01*
X229230960Y-61777515D01*
X228728186Y-61777515D01*
X228728186Y-62054974D01*
X229287686Y-62054974D01*
X229287686Y-62223014D01*
X228526014Y-62223014D01*
G37*
G36*
X229532844Y-61965093D02*
G01*
X229482958Y-61454687D01*
X229482958Y-61218687D01*
X229690625Y-61218687D01*
X229690625Y-61454687D01*
X229641471Y-61965093D01*
X229532844Y-61965093D01*
G37*
G36*
X229491140Y-62223014D02*
G01*
X229491140Y-62031527D01*
X229683054Y-62031527D01*
X229683054Y-62223014D01*
X229491140Y-62223014D01*
G37*
D13*
%TO.P,BAT2,+*%
%TO.N,BAT2+*%
X73537100Y-72656300D03*
%TO.P,BAT2,-*%
%TO.N,BAT2-*%
X73537100Y-67576300D03*
%TD*%
D14*
%TO.P,S1,1*%
%TO.N,U3_D2*%
X147920800Y-82395414D03*
%TO.P,S1,2*%
X147920800Y-75893014D03*
%TO.P,S1,3*%
%TO.N,U3_5V*%
X152442000Y-82395414D03*
%TO.P,S1,4*%
%TO.N,N/C*%
X152442000Y-75893014D03*
%TD*%
D15*
%TO.P,R1,1*%
%TO.N,U3_D13*%
X144046400Y-74183400D03*
%TO.P,R1,2*%
%TO.N,D1_A*%
X144046400Y-64023400D03*
%TD*%
D16*
%TO.P,D1,1*%
%TO.N,D1_A*%
X144052147Y-59893014D03*
%TO.P,D1,2*%
%TO.N,BAT2-*%
X141512147Y-59893014D03*
%TD*%
D15*
%TO.P,R2,1*%
%TO.N,BAT2-*%
X147641400Y-95570700D03*
%TO.P,R2,2*%
%TO.N,U3_D2*%
X147641400Y-85410700D03*
%TD*%
D14*
%TO.P,U3,3.3V*%
%TO.N,N/C*%
X112447400Y-148178000D03*
%TO.P,U3,5V*%
%TO.N,U3_5V*%
X114987400Y-148178000D03*
%TO.P,U3,A0*%
%TO.N,N/C*%
X127687400Y-148178000D03*
%TO.P,U3,A1*%
X130227400Y-148178000D03*
%TO.P,U3,A2*%
X132767400Y-148178000D03*
%TO.P,U3,A3*%
X135307400Y-148178000D03*
%TO.P,U3,A4*%
X137847400Y-148178000D03*
%TO.P,U3,A5*%
X140387400Y-148178000D03*
%TO.P,U3,AREF*%
X101017400Y-99918000D03*
%TO.P,U3,D2*%
%TO.N,U3_D2*%
X135307400Y-99918000D03*
%TO.P,U3,D3*%
%TO.N,N/C*%
X132767400Y-99918000D03*
%TO.P,U3,D4*%
X130227400Y-99918000D03*
%TO.P,U3,D5*%
X127687400Y-99918000D03*
%TO.P,U3,D6*%
X125147400Y-99918000D03*
%TO.P,U3,D7*%
X122607400Y-99918000D03*
%TO.P,U3,D8*%
X118797400Y-99918000D03*
%TO.P,U3,D9*%
X116257400Y-99918000D03*
%TO.P,U3,D10*%
X113717400Y-99918000D03*
%TO.P,U3,D11*%
X111177400Y-99918000D03*
%TO.P,U3,D12*%
X108637400Y-99918000D03*
%TO.P,U3,D13*%
%TO.N,U3_D13*%
X106097400Y-99918000D03*
%TO.P,U3,GND@0*%
%TO.N,BAT2-*%
X117527400Y-148178000D03*
%TO.P,U3,GND@1*%
X120067400Y-148178000D03*
%TO.P,U3,GND@2*%
X103557400Y-99918000D03*
%TO.P,U3,IOREF*%
%TO.N,N/C*%
X107367400Y-148178000D03*
%TO.P,U3,NC*%
X104827400Y-148178000D03*
%TO.P,U3,RES*%
X109907400Y-148178000D03*
%TO.P,U3,RX*%
X140387400Y-99918000D03*
%TO.P,U3,SCL*%
%TO.N,U3_SCL*%
X95937400Y-99918000D03*
%TO.P,U3,SDA*%
%TO.N,U3_SDA*%
X98477400Y-99918000D03*
%TO.P,U3,TX*%
%TO.N,N/C*%
X137847400Y-99918000D03*
%TO.P,U3,VIN*%
%TO.N,BAT2+*%
X122607400Y-148178000D03*
%TD*%
D17*
%TO.P,U4,1*%
%TO.N,BAT2-*%
X158732100Y-105973000D03*
%TO.P,U4,2*%
%TO.N,U3_5V*%
X158732100Y-108513000D03*
%TO.P,U4,3*%
%TO.N,U3_SDA*%
X158732100Y-111053000D03*
%TO.P,U4,4*%
%TO.N,U3_SCL*%
X158732100Y-113593000D03*
%TD*%
%TO.N,BAT2-*%
D18*
X117527400Y-148178000D02*
X120067400Y-148178000D01*
X147641400Y-95570700D02*
X107904700Y-95570700D01*
X107904700Y-95570700D02*
X103557400Y-99918000D01*
%TO.N,U3_SDA*%
X109612400Y-111053000D02*
X158732100Y-111053000D01*
X98477400Y-99918000D02*
X109612400Y-111053000D01*
%TO.N,U3_SCL*%
X109612400Y-113593000D02*
X158732100Y-113593000D01*
X95937400Y-99918000D02*
X109612400Y-113593000D01*
%TO.N,D1_A*%
X144046400Y-64023400D02*
X144046400Y-59898761D01*
X144046400Y-59898761D02*
X144052147Y-59893014D01*
%TD*%
M02*
