%TF.GenerationSoftware,KiCad,Pcbnew,10.0.6*%
%TF.CreationDate,2026-09-01T21:38:50+02:00*%
%TF.ProjectId,Amazing Gogo-Kieran (4),416d617a-696e-4672-9047-6f676f2d4b69,rev?*%
%TF.SameCoordinates,Original*%
%TF.FileFunction,Soldermask,Top*%
%TF.FilePolarity,Negative*%
%FSLAX46Y46*%
G04 Gerber Fmt 4.6, Leading zero omitted, Abs format (unit mm)*
G04 Created by KiCad (PCBNEW 10.0.6) date 2026-09-01 21:38:50*
%MOMM*%
%LPD*%
G01*
G04 APERTURE LIST*
G04 Aperture macros list*
%AMFreePoly0*
4,1,25,0.712023,1.656996,0.724146,1.646642,1.646642,0.724146,1.675149,0.668198,1.676400,0.652304,1.676400,-0.652304,1.656996,-0.712023,1.646642,-0.724146,0.724146,-1.646642,0.668198,-1.675149,0.652304,-1.676400,-0.652304,-1.676400,-0.712023,-1.656996,-0.724146,-1.646642,-1.646642,-0.724146,-1.675149,-0.668198,-1.676400,-0.652304,-1.676400,0.652304,-1.656996,0.712023,-1.646642,0.724146,
-0.724146,1.646642,-0.668198,1.675149,-0.652304,1.676400,0.652304,1.676400,0.712023,1.656996,0.712023,1.656996,$1*%
G04 Aperture macros list end*
%ADD10FreePoly0,270.000000*%
%ADD11C,2.082800*%
%ADD12C,1.633200*%
%ADD13C,1.784200*%
%ADD14O,3.251200X1.727200*%
G04 APERTURE END LIST*
D10*
%TO.C,BAT2*%
X73537100Y-72656300D03*
X73537100Y-67576300D03*
%TD*%
D11*
%TO.C,S1*%
X147920800Y-82395414D03*
X147920800Y-75893014D03*
X152442000Y-82395414D03*
X152442000Y-75893014D03*
%TD*%
D12*
%TO.C,R1*%
X144046400Y-74183400D03*
X144046400Y-64023400D03*
%TD*%
D13*
%TO.C,D1*%
X144052147Y-59893014D03*
X141512147Y-59893014D03*
%TD*%
D12*
%TO.C,R2*%
X147641400Y-95570700D03*
X147641400Y-85410700D03*
%TD*%
D11*
%TO.C,U3*%
X112447400Y-148178000D03*
X114987400Y-148178000D03*
X127687400Y-148178000D03*
X130227400Y-148178000D03*
X132767400Y-148178000D03*
X135307400Y-148178000D03*
X137847400Y-148178000D03*
X140387400Y-148178000D03*
X101017400Y-99918000D03*
X135307400Y-99918000D03*
X132767400Y-99918000D03*
X130227400Y-99918000D03*
X127687400Y-99918000D03*
X125147400Y-99918000D03*
X122607400Y-99918000D03*
X118797400Y-99918000D03*
X116257400Y-99918000D03*
X113717400Y-99918000D03*
X111177400Y-99918000D03*
X108637400Y-99918000D03*
X106097400Y-99918000D03*
X117527400Y-148178000D03*
X120067400Y-148178000D03*
X103557400Y-99918000D03*
X107367400Y-148178000D03*
X104827400Y-148178000D03*
X109907400Y-148178000D03*
X140387400Y-99918000D03*
X95937400Y-99918000D03*
X98477400Y-99918000D03*
X137847400Y-99918000D03*
X122607400Y-148178000D03*
%TD*%
D14*
%TO.C,U4*%
X158732100Y-105973000D03*
X158732100Y-108513000D03*
X158732100Y-111053000D03*
X158732100Y-113593000D03*
%TD*%
M02*
